<svg xmlns="http://www.w3.org/2000/svg" width="366.896" height="200"><g fill-rule="evenodd" clip-rule="evenodd"><path fill="#01999A" d="M0 34.92L366.9 0l-83 200-247.8-35.84z"/><g fill="#EFEEEE"><path d="M54.2 86.62h1.36l22.22-48.07h-6.95l-15.95 34.5-15.95-34.5h-6.95zM140.27 43c-2.08-1.58-4.63-2.88-7.62-3.86-3-1-6.1-1.5-9.3-1.5-5.13 0-9.76 1.12-13.9 3.3-4.14 2.24-7.4 5.3-9.75 9.23-2.36 3.95-3.55 8.22-3.55 12.8 0 6.84 2.53 12.66 7.6 17.42 5.04 4.75 11.43 7.13 19.1 7.13 5 0 9.46-.98 13.38-2.95 3.9-1.98 7.02-4.76 9.35-8.33l-4.9-3.23c-4.55 5.74-10.37 8.6-17.5 8.6-3.92 0-7.44-.82-10.57-2.48s-5.6-4-7.4-7.03c-1.8-3-2.7-6.22-2.7-9.64 0-5.26 1.96-9.72 5.85-13.4 3.92-3.7 8.85-5.52 14.76-5.52 7.42 0 13.28 2.87 17.57 8.62l4.9-3.06c-1.45-2.48-3.22-4.5-5.3-6.1zM160.54 38.55h-8.6V44h8.6V86.6h6.36V44h9.97v-5.45h-9.97V24.5h-6.36zM221.64 49.17c3.72 3.74 5.57 8.27 5.57 13.58 0 3.44-.84 6.64-2.52 9.6-1.68 2.97-3.97 5.26-6.84 6.86-2.87 1.64-6 2.43-9.45 2.43-3.45 0-6.6-.8-9.48-2.42-2.87-1.6-5.14-3.88-6.82-6.85-1.68-2.96-2.53-6.16-2.53-9.6 0-5.3 1.85-9.84 5.56-13.58 3.68-3.76 8.1-5.63 13.26-5.63 5.1 0 9.53 1.87 13.24 5.63zm-31.75-3.55c-4.47 4.83-6.68 10.54-6.68 17.1 0 6.63 2.35 12.43 7.05 17.38 4.7 4.95 10.73 7.43 18.14 7.43 7.38 0 13.43-2.48 18.1-7.43 4.72-4.95 7.06-10.75 7.06-17.38 0-6.6-2.23-12.3-6.67-17.14-4.9-5.3-11.04-7.94-18.5-7.94-7.45 0-13.63 2.67-18.5 7.98zM246.7 86.62V70.48c0-8.27.6-13.85 1.34-16.57.94-3.54 2.32-6.15 4.14-7.83 1.8-1.68 3.7-2.53 5.66-2.53.84 0 1.88.28 3.1.85l3.24-5.1c-1.88-1.1-3.6-1.66-5.26-1.66-2.17 0-4.27.62-6.27 1.9-2 1.26-4.14 3.34-5.94 6.13v-7.12h-5.88v48.07h5.88z"/></g><g fill="#EFEEEE"><path d="M78.4 115.7c3.67 3.67 5.5 8.22 5.5 13.66 0 3.58-.8 6.8-2.46 9.64-1.62 2.86-3.94 5.12-7 6.8-3 1.67-6.22 2.5-9.6 2.5-3.37 0-6.5-.85-9.43-2.53-2.92-1.68-5.25-4.05-7-7.07-1.72-3.02-2.6-6.2-2.6-9.5 0-3.35.86-6.52 2.6-9.53 1.72-2.98 4.02-5.33 6.93-6.97 2.9-1.66 6.1-2.5 9.54-2.5 5.37 0 9.87 1.84 13.53 5.5zm5.5-1.3c-2.44-3.37-5.27-5.88-8.5-7.56-3.23-1.68-6.86-2.53-10.83-2.53-6.92 0-12.83 2.45-17.74 7.28-4.92 4.86-7.37 10.72-7.37 17.54 0 6.97 2.43 12.9 7.3 17.76 4.87 4.88 10.74 7.32 17.62 7.32 3.87 0 7.45-.74 10.7-2.23 3.27-1.48 6.2-3.8 8.82-6.96v8.3h6.35V38.54H83.9v75.85zM103.57 123.8c1.27-4.28 3.18-7.5 5.67-9.63 3.4-2.94 7.5-4.42 12.25-4.42 2.88 0 5.62.6 8.24 1.76 2.6 1.18 4.73 2.73 6.32 4.64 1.58 1.9 2.8 4.48 3.63 7.67h-36.13zm30.22 19.63c-1.62 1.34-3.56 2.4-5.85 3.2-2.3.82-4.65 1.22-7.07 1.22-5 0-9.22-1.74-12.64-5.22-3.42-3.48-5.18-7.94-5.3-13.38h43.55c-.07-6.48-1.87-11.88-5.34-16.2-4.93-6.13-11.5-9.2-19.75-9.2-8 0-14.4 3-19.15 8.98-3.78 4.73-5.65 10.1-5.65 16.1 0 6.4 2.2 12.13 6.58 17.2 4.38 5.08 10.45 7.6 18.23 7.6 3.53 0 6.66-.52 9.44-1.56 2.78-1.03 5.27-2.56 7.5-4.57 2.2-1.98 4.18-4.63 5.88-7.9l-5.23-2.74c-1.9 3-3.62 5.14-5.2 6.47zM165.67 103.85c-3.7 0-6.77 1.22-9.2 3.6-2.42 2.4-3.63 5.42-3.63 9.03 0 2.78.75 5.25 2.26 7.4 1.5 2.18 4.35 4.37 8.53 6.6 3.9 2 6.38 3.67 7.5 4.97 1.1 1.36 1.66 2.9 1.66 4.6 0 2.1-.86 3.94-2.52 5.47-1.68 1.55-3.73 2.32-6.12 2.32-3.4 0-6.64-1.8-9.7-5.44l-3.9 4.42c1.65 2.16 3.7 3.86 6.23 5.1 2.5 1.2 5.13 1.82 7.88 1.82 4.12 0 7.56-1.34 10.32-4.04 2.76-2.7 4.14-6 4.14-9.9 0-2.74-.8-5.22-2.42-7.43-1.64-2.17-4.74-4.44-9.3-6.8-3.76-1.87-6.2-3.54-7.38-4.95-1.18-1.38-1.76-2.86-1.76-4.4 0-1.7.68-3.22 2.06-4.52 1.4-1.3 3.06-1.95 5-1.95 3.05 0 6.17 1.82 9.36 5.44l4-4.13c-4.38-4.8-8.72-7.22-13.03-7.22zM185.04 104.76h6.34v48.07h-6.34z"/></g><g fill="#EFEEEE"><path d="M231.63 112.2c2.86 1.63 5.07 3.86 6.62 6.68 1.57 2.83 2.34 6.03 2.34 9.62 0 5.52-1.7 9.97-5.1 13.36-3.4 3.38-7.87 5.08-13.45 5.08-5.5 0-10-1.7-13.45-5.12-3.46-3.42-5.2-7.75-5.2-12.97 0-3.45.83-6.65 2.52-9.6 1.66-2.98 3.98-5.3 6.93-7 2.93-1.65 6.13-2.5 9.56-2.5 3.3 0 6.38.83 9.23 2.46zm.04-6.27c-3.1-1.38-6.42-2.08-9.98-2.08-4.3 0-8.4 1.12-12.25 3.35-3.9 2.2-6.92 5.24-9.1 9.05-2.2 3.82-3.3 7.94-3.3 12.36 0 4.43 1.06 8.48 3.16 12.16 2.1 3.7 5.1 6.64 8.95 8.8 3.85 2.2 7.97 3.28 12.37 3.28 3.73 0 7.28-.8 10.6-2.37 3.33-1.58 6.4-3.8 8.7-6.76v2.47c0 5.3-.85 9.05-2.1 11.35-1.25 2.3-3.33 4.22-6.24 5.75-2.9 1.5-6.5 2.27-10.73 2.27-4.3 0-7.88-.78-10.8-2.33-2.9-1.56-5.26-3.96-7.1-7.2h-6.34c1.75 3.9 3.63 6.8 5.7 8.84 2.05 2 4.72 3.6 8 4.8s6.98 1.8 11.1 1.8c5.63 0 10.43-1.2 14.44-3.58 4-2.38 6.82-5.76 8.44-10.17 1.18-3.12 1.53-7.98 1.53-14.7v-38.24h-5.88v8.4s-6.07-5.85-9.15-7.23zM259.87 152.83V135.4c0-6.24.5-10.55 1.1-12.9.96-3.6 2.9-6.63 5.87-9.08 2.96-2.44 6.33-3.67 10.1-3.67 3.26 0 5.92.8 7.94 2.38 2.05 1.6 3.52 4.03 4 7.18.05 1.9 0 5.42 0 10.88v22.65h6.36v-24.56c0-6.5-.43-11.28-1.74-14.36-1.32-3.07-3.34-5.5-6.1-7.32-2.76-1.82-5.92-2.72-9.47-2.72-3.5 0-6.73.75-9.7 2.28-2.98 1.55-5.93 3.94-8.37 7.24v-8.62h-6.34v48.07h6.35z"/></g></g></svg>